# xmcd
#
# Track frame offsets: 
#        182
#        15140
#        26310
#        45785
#        59305
#        73050
#        89232
#        99285
#        112617
#        124520
#        138680
#        151435
#        163730
#        177952
#
# Disc length: 2521 seconds
#
# Revision: 0
# Processed by: cddbd v1.5.1PL0 Copyright (c) Steve Scherf et al.
# Submitted via: ExactAudioCopy v0.90b4
#
DISCID=a609d70e
DTITLE=Stompin Tom - More of the Stompin' Tom Phenomenon
DYEAR=1991
DGENRE=Folk
TTITLE0=Margo's Cargo
TTITLE1=Flyin' C.P.R.
TTITLE2=Rita Macneil (A Tribute)
TTITLE3=Brown Eyes for the Blues
TTITLE4=J.R.'s Bar
TTITLE5=Loser's Island
TTITLE6=St. Anne's Song and Reel
TTITLE7=Made in the Shade
TTITLE8=Love's not the Only Thing
TTITLE9=Land of the Maple Tree
TTITLE10=A Real Canadian Girl
TTITLE11=Okanagan Okee
TTITLE12=No Canadian Dream
TTITLE13=Gone with the Wind (I'll be)
EXTD=
EXTT0=
EXTT1=
EXTT2=
EXTT3=
EXTT4=
EXTT5=
EXTT6=
EXTT7=
EXTT8=
EXTT9=
EXTT10=
EXTT11=
EXTT12=
EXTT13=
PLAYORDER=
